<svg width="89" height="89" viewBox="0 0 89 89" fill="none" xmlns="http://www.w3.org/2000/svg">
<path d="M89 44.5C89 69.0767 69.0767 89 44.5 89C19.9233 89 0 69.0767 0 44.5C0 19.9233 19.9233 0 44.5 0C69.0767 0 89 19.9233 89 44.5Z" fill="#232428"/>
<path d="M89 44.5C89 69.0767 69.0767 89 44.5 89C19.9233 89 0 69.0767 0 44.5C0 19.9233 19.9233 0 44.5 0C69.0767 0 89 19.9233 89 44.5Z" fill="#232428"/>
<line x1="23" y1="27.5" x2="66" y2="27.5" stroke="white" stroke-width="3"/>
<line x1="23" y1="43.5" x2="66" y2="43.5" stroke="white" stroke-width="3"/>
<line x1="23" y1="58.5" x2="66" y2="58.5" stroke="white" stroke-width="3"/>
</svg>
