<svg width="50" height="50" viewBox="0 0 50 50" fill="none" xmlns="http://www.w3.org/2000/svg">
<g clip-path="url(#clip0_50_2)">
<path d="M23.0709 5.4855C23.7375 3.72716 26.2605 3.72716 26.9292 5.4855L31.2417 17.4313C31.3922 17.8205 31.6571 18.1548 32.0015 18.3903C32.3459 18.6257 32.7537 18.7512 33.1709 18.7501H43.7688C45.7271 18.7501 46.5813 21.1876 45.0417 22.3813L37.5 29.1667C37.1622 29.4265 36.9153 29.7865 36.7948 30.1952C36.6743 30.6039 36.6863 31.0403 36.8292 31.4417L39.5834 43.1147C40.2542 44.9897 38.0834 46.6001 36.4417 45.4459L26.198 38.9459C25.8471 38.6994 25.4288 38.5671 25 38.5671C24.5713 38.5671 24.1529 38.6994 23.8021 38.9459L13.5584 45.4459C11.9188 46.6001 9.74587 44.9876 10.4167 43.1147L13.1709 31.4417C13.3137 31.0403 13.3258 30.6039 13.2053 30.1952C13.0847 29.7865 12.8379 29.4265 12.5 29.1667L4.95837 22.3813C3.4167 21.1876 4.27504 18.7501 6.2292 18.7501H16.8271C17.2444 18.7515 17.6523 18.6261 17.9967 18.3906C18.3412 18.1552 18.6061 17.8206 18.7563 17.4313L23.0688 5.4855H23.0709Z" stroke="white" stroke-width="2" stroke-linecap="round" stroke-linejoin="round"/>
</g>
<defs>
<clipPath id="clip0_50_2">
<rect width="50" height="50" fill="white"/>
</clipPath>
</defs>
</svg>
