<svg width="37" height="35" viewBox="0 0 37 35" fill="none" xmlns="http://www.w3.org/2000/svg">
<path d="M16.9724 2.04443C17.5003 0.651855 19.4984 0.651855 20.028 2.04443L23.4434 11.5054C23.5625 11.8136 23.7723 12.0784 24.0451 12.2649C24.3179 12.4513 24.6408 12.5507 24.9712 12.5498H33.3644C34.9153 12.5498 35.5918 14.4803 34.3725 15.4257L28.3998 20.7997C28.1322 21.0054 27.9367 21.2905 27.8412 21.6142C27.7458 21.9379 27.7553 22.2835 27.8685 22.6015L30.0497 31.8463C30.581 33.3313 28.8617 34.6067 27.5616 33.6926L19.4489 28.5447C19.1711 28.3494 18.8398 28.2446 18.5002 28.2446C18.1606 28.2446 17.8293 28.3494 17.5515 28.5447L9.4388 33.6926C8.14031 34.6067 6.41944 33.3296 6.95071 31.8463L9.13192 22.6015C9.24507 22.2835 9.2546 21.9379 9.15915 21.6142C9.06371 21.2905 8.86819 21.0054 8.60064 20.7997L2.6279 15.4257C1.40696 14.4803 2.08673 12.5498 3.63436 12.5498H12.0275C12.358 12.5509 12.681 12.4517 12.9538 12.2652C13.2267 12.0787 13.4364 11.8137 13.5554 11.5054L16.9707 2.04443H16.9724Z" stroke="black" stroke-width="2" stroke-linecap="round" stroke-linejoin="round"/>
</svg>
